# xmcd
#
# Track frame offsets: 
#        150
#        15002
#        36095
#        59401
#        75025
#        87481
#        111608
#        130474
#        143257
#        167175
#        193282
#        204057
#        216652
#        231348
#        254989
#        267506
#        290323
#        310746
#        325698
#        341158
#
# Disc length: 4796 seconds
#
# Revision: 0
# Processed by: cddbd v1.5.2PL0 Copyright (c) Steve Scherf et al.
# Submitted via: ExactAudioCopy v1.0b3
#
DISCID=2b12ba14
DTITLE=Sonny Terry and Brownie McGhee - Blowin' The Fuses From Studio To
DTITLE=Stage
DYEAR=2003
DGENRE=Blues
TTITLE0=Down By The Riverside
TTITLE1=Blues For The Lowlands
TTITLE2=Blowin' The Fuses
TTITLE3=Trouble In Mind
TTITLE4=Po' Boy
TTITLE5=Drinkin' In The Blues
TTITLE6=I'm A Stranger Here
TTITLE7=Right On That Shore
TTITLE8=Early Morning Blues
TTITLE9=Blues For Gamblers
TTITLE10=A Long Way From Home
TTITLE11=I Can't See Why My Baby Don't Want Me No More
TTITLE12=I Got A Woman
TTITLE13=Sun's Gonna Shine
TTITLE14=Hootin' The Blues
TTITLE15=Don't Want You No More
TTITLE16=I Feel So Good
TTITLE17=Bring It On Home To Me
TTITLE18=Nobody Else Will Do
TTITLE19=Walk On
EXTD=
EXTT0=
EXTT1=
EXTT2=
EXTT3=
EXTT4=
EXTT5=
EXTT6=
EXTT7=
EXTT8=
EXTT9=
EXTT10=
EXTT11=
EXTT12=
EXTT13=
EXTT14=
EXTT15=
EXTT16=
EXTT17=
EXTT18=
EXTT19=
PLAYORDER=
